<?xml version="1.0" standalone="no"?>
<!DOCTYPE svg PUBLIC "-//W3C//DTD SVG 1.1//EN"
"http://www.w3.org/Graphics/SVG/1.1/DTD/svg11.dtd">

<svg width="381" height="296" view_box="0 0 381 296"
xmlns="http://www.w3.org/2000/svg"
xmlns:link="http://www.w3.org/1999/xlink">\n\n<desc>Généré par Mocodo 2.3.7 le Thu, 07 Apr 2022 00:52:27</desc>

<rect id="frame" x="0" y="0" width="381" height="296" fill="#ffffbf" stroke="none" stroke-width="0"/>

<!-- Association PLAY BY/CAN PLAY -->
<line x1="214" y1="85" x2="74" y2="85" stroke="#74add1" stroke-width="2"/>
<text x="144" y="102.0" fill="#d73027" font-family="Verdana" font-size="12">0,N</text>
<line x1="74" y1="211" x2="74" y2="85" stroke="#74add1" stroke-width="2"/>
<text x="79.0" y="127" fill="#d73027" font-family="Verdana" font-size="12">1,N</text>
<g id="association-PLAY BY/CAN PLAY">
	<path d="M 125 60 a 14 14 90 0 1 14 14 V 85 h -130 V 74 a 14 14 90 0 1 14 -14" fill="#abd9e9" stroke="#abd9e9" stroke-width="0"/>
	<path d="M 139 85.0 v 11 a 14 14 90 0 1 -14 14 H 23 a 14 14 90 0 1 -14 -14 V 85.0 H 130" fill="#e0f3f8" stroke="#e0f3f8" stroke-width="0"/>
	<rect x="9" y="60" width="130" height="50" fill="none" rx="14" stroke="#74add1" stroke-width="2"/>
	<line x1="9" y1="85" x2="139" y2="85" stroke="#74add1" stroke-width="1"/>
	<text x="16" y="77.7" fill="#000000" font-family="Verdana" font-size="12">PLAY BY/CAN PLAY</text>
</g>

<!-- Association BELONGS TO -->
<line x1="333" y1="211" x2="214" y2="211" stroke="#74add1" stroke-width="2"/>
<text x="267" y="228.0" fill="#d73027" font-family="Verdana" font-size="12">0,N</text>
<line x1="214" y1="85" x2="214" y2="211" stroke="#74add1" stroke-width="2"/>
<text x="219.0" y="178" fill="#d73027" font-family="Verdana" font-size="12">1,N</text>
<g id="association-BELONGS TO">
	<path d="M 248 186 a 14 14 90 0 1 14 14 V 211 h -96 V 200 a 14 14 90 0 1 14 -14" fill="#abd9e9" stroke="#abd9e9" stroke-width="0"/>
	<path d="M 262 211.0 v 11 a 14 14 90 0 1 -14 14 H 180 a 14 14 90 0 1 -14 -14 V 211.0 H 96" fill="#e0f3f8" stroke="#e0f3f8" stroke-width="0"/>
	<rect x="166" y="186" width="96" height="50" fill="none" rx="14" stroke="#74add1" stroke-width="2"/>
	<line x1="166" y1="211" x2="262" y2="211" stroke="#74add1" stroke-width="1"/>
	<text x="173" y="203.7" fill="#000000" font-family="Verdana" font-size="12">BELONGS TO</text>
</g>

<!-- Entity CATEGORY -->
<g id="entity-CATEGORY">
	<g id="frame-CATEGORY">
		<rect x="294" y="186" width="78" height="25" fill="#fdae61" stroke="#fdae61" stroke-width="0"/>
		<rect x="294" y="211.0" width="78" height="25" fill="#fee090" stroke="#fee090" stroke-width="0"/>
		<rect x="294" y="186" width="78" height="50" fill="none" stroke="#f46d43" stroke-width="2"/>
		<line x1="294" y1="211" x2="372" y2="211" stroke="#f46d43" stroke-width="1"/>
	</g>
	<text x="299" y="203.7" fill="#000000" font-family="Verdana" font-size="12">CATEGORY</text>
	<text x="299" y="228.8" fill="#000000" font-family="Verdana" font-size="12">name</text>
	<line x1="299" y1="231" x2="334" y2="231" stroke="#000000" stroke-width="1"/>
</g>

<!-- Entity MOVIE -->
<g id="entity-MOVIE">
	<g id="frame-MOVIE">
		<rect x="171" y="9" width="86" height="25" fill="#fdae61" stroke="#fdae61" stroke-width="0"/>
		<rect x="171" y="34.0" width="86" height="127" fill="#fee090" stroke="#fee090" stroke-width="0"/>
		<rect x="171" y="9" width="86" height="152" fill="none" stroke="#f46d43" stroke-width="2"/>
		<line x1="171" y1="34" x2="257" y2="34" stroke="#f46d43" stroke-width="1"/>
	</g>
	<text x="193" y="26.7" fill="#000000" font-family="Verdana" font-size="12">MOVIE</text>
	<text x="176" y="51.7" fill="#000000" font-family="Verdana" font-size="12">name</text>
	<line x1="176" y1="54" x2="211" y2="54" stroke="#000000" stroke-width="1"/>
	<text x="176" y="68.7" fill="#000000" font-family="Verdana" font-size="12">director</text>
	<text x="176" y="85.8" fill="#000000" font-family="Verdana" font-size="12">release date</text>
	<text x="176" y="102.8" fill="#000000" font-family="Verdana" font-size="12">duration</text>
	<text x="176" y="119.8" fill="#000000" font-family="Verdana" font-size="12">synopsis</text>
	<text x="176" y="136.8" fill="#000000" font-family="Verdana" font-size="12">rate</text>
	<text x="176" y="153.8" fill="#000000" font-family="Verdana" font-size="12">photo</text>
</g>

<!-- Entity ACTOR -->
<g id="entity-ACTOR">
	<g id="frame-ACTOR">
		<rect x="37" y="135" width="74" height="25" fill="#fdae61" stroke="#fdae61" stroke-width="0"/>
		<rect x="37" y="160.0" width="74" height="127" fill="#fee090" stroke="#fee090" stroke-width="0"/>
		<rect x="37" y="135" width="74" height="152" fill="none" stroke="#f46d43" stroke-width="2"/>
		<line x1="37" y1="160" x2="111" y2="160" stroke="#f46d43" stroke-width="1"/>
	</g>
	<text x="52" y="152.7" fill="#000000" font-family="Verdana" font-size="12">ACTOR</text>
	<text x="42" y="177.7" fill="#000000" font-family="Verdana" font-size="12">CodeActor</text>
	<line x1="42" y1="180" x2="105" y2="180" stroke="#000000" stroke-width="1"/>
	<text x="42" y="194.7" fill="#000000" font-family="Verdana" font-size="12">lastname</text>
	<text x="42" y="211.8" fill="#000000" font-family="Verdana" font-size="12">firstname</text>
	<text x="42" y="228.8" fill="#000000" font-family="Verdana" font-size="12">age</text>
	<text x="42" y="245.8" fill="#000000" font-family="Verdana" font-size="12">nationality</text>
	<text x="42" y="262.8" fill="#000000" font-family="Verdana" font-size="12">photo</text>
	<text x="42" y="279.8" fill="#000000" font-family="Verdana" font-size="12">biography</text>
</g>
</svg>